<?xml version="1.0" encoding="UTF-8"?>
<svg id="Ebene_2" data-name="Ebene 2" xmlns="http://www.w3.org/2000/svg" viewBox="0 0 125.62 94.3">
  <g id="Ebene_1-2" data-name="Ebene 1">
    <g>
      <path d="M49.47,0h26.04c-16.47,15.73-32.95,31.47-49.42,47.21,16.45,15.69,32.9,31.39,49.34,47.09h-26.01C32.91,78.62,16.44,62.92,0,47.19v-.08c.79-.62,1.53-1.3,2.22-2.02C17.97,30.06,33.72,15.03,49.47,0Z"/>
      <path d="M75.43,15.03c5.78,0,11.55,0,17.32,0,10.96,10.49,21.92,21,32.87,31.5h0c-10.87,10.53-21.85,20.93-32.72,31.45-5.8.05-11.59.02-17.38.02,10.92-10.5,21.89-20.95,32.81-31.46-10.98-10.49-21.94-20.99-32.89-31.51Z"/>
      <path d="M68.47,32.58l-14.57,14.57,14.57,14.57,14.57-14.57-14.57-14.57Z"/>
    </g>
  </g>
</svg>